<svg width="1140" height="268" viewBox="0 0 1140 268" fill="none" xmlns="http://www.w3.org/2000/svg">
<rect width="1140" height="268" rx="32" fill="#EAEFFB"/>
<mask id="mask0_1_1171" style="mask-type:alpha" maskUnits="userSpaceOnUse" x="0" y="0" width="1140" height="268">
<rect width="1140" height="268" rx="32" fill="#2563EB"/>
</mask>
<g mask="url(#mask0_1_1171)">
<path opacity="0.2" d="M-31.3913 -88.5176C-3.40699 -101.685 26.8021 -105.443 52.9579 -100.985C79.111 -96.5267 101.043 -83.9037 112.966 -64.4075C124.888 -44.9112 124.747 -21.9006 114.515 -0.321794C104.283 21.259 84.0055 41.2574 56.0211 54.4253C28.0368 67.5931 -2.17232 71.3512 -28.3281 66.8926C-54.4813 62.4343 -76.4142 49.8107 -88.3366 30.3144C-100.259 10.8182 -100.117 -12.192 -89.8856 -33.7705C-79.6535 -55.3513 -59.3756 -75.3497 -31.3913 -88.5176Z" stroke="#044AFC" stroke-width="5.40123"/>
<path d="M1130.32 192.058C1163.58 192.058 1193.58 201.803 1215.2 217.424C1236.82 233.046 1249.89 254.395 1249.89 277.707C1249.89 301.019 1236.82 322.367 1215.2 337.99C1193.58 353.61 1163.58 363.355 1130.32 363.355C1097.06 363.355 1067.07 353.61 1045.45 337.99C1023.83 322.367 1010.75 301.019 1010.75 277.707C1010.75 254.395 1023.83 233.046 1045.45 217.424C1067.07 201.803 1097.06 192.058 1130.32 192.058Z" stroke="#044AFC" stroke-width="5.40123"/>
</g>
</svg>
