<svg width="42" height="42" viewBox="0 0 42 42" fill="none" xmlns="http://www.w3.org/2000/svg">
<path d="M24.8943 7.50329C26.206 7.18486 27.219 7.35491 27.9333 8.01346C28.6477 8.672 28.8307 9.60086 28.4824 10.8L21.9512 33.2845L29.2683 31.4783L37.1057 4.49689L42 3.29674L32.8564 34.775L20.645 37.7814C19.3658 38.1079 18.3528 37.9378 17.606 37.2712C16.8916 36.6127 16.7086 35.6838 17.0569 34.4847L23.5881 12.0002L16.3198 13.8185L8.48237 40.7998L3.58807 42L12.7317 10.5217L24.8943 7.50329ZM42 3.29674L37.1057 4.49689L33.5176 1.20015L38.4119 0L42 3.29674ZM37.1057 4.49689L29.2683 31.4783L25.6802 28.1815L33.5176 1.20015L37.1057 4.49689ZM29.2683 31.4783L21.9512 33.2845L18.3632 29.9878L25.6802 28.1815L29.2683 31.4783ZM23.5881 12.0002L17.0569 34.4847C16.7086 35.6838 16.8916 36.6127 17.606 37.2712L14.0667 33.9865C13.3523 33.328 13.1693 32.3991 13.5176 31.2L20.0488 8.71549L23.5881 12.0002ZM27.9333 8.01346C27.219 7.35491 26.206 7.18486 24.8943 7.50329L12.7317 10.5217L9.14363 7.225L21.355 4.2186C22.6341 3.89213 23.6309 4.05817 24.3453 4.71671L27.9333 8.01346ZM12.7317 10.5217L3.58807 42L0 38.7033L9.14363 7.225L12.7317 10.5217Z" fill="#044AFC"/>
</svg>
